<svg width="181" height="181" viewBox="0 0 181 181" fill="none" xmlns="http://www.w3.org/2000/svg">
<g clip-path="url(#clip0_16_298)">
<path fill-rule="evenodd" clip-rule="evenodd" d="M36.93 97.2001C31.6467 100.416 30.7941 106.963 32.669 113.636C33.5137 116.65 34.9085 119.677 36.7154 122.483C38.5193 125.277 40.7113 127.805 43.1769 129.826C48.784 134.444 55.7873 136.304 62.2441 131.955C62.7273 131.626 63.3072 131.521 63.8411 131.614C63.9445 131.536 64.051 131.47 64.166 131.39C65.7829 130.336 67.2942 129.397 68.6673 128.545C70.2017 127.6 71.6559 126.726 73.0329 125.935C74.0958 125.315 75.4603 125.682 76.0803 126.745C76.1251 126.82 76.1585 126.898 76.1918 126.976C76.6516 127.858 77.1231 128.737 77.5829 129.62C77.586 129.625 77.589 129.631 77.592 129.637C81.1709 136.467 84.6241 143.057 88.2559 148.186C88.3186 148.281 88.8045 148.983 89.302 149.681C91.5613 152.924 93.9901 156.383 96.3906 158.16C98.508 159.716 100.855 159.72 103.547 156.143C104.009 155.392 104.494 154.682 104.987 153.959C105.002 153.938 105.016 153.917 105.03 153.896C105.047 153.872 105.064 153.847 105.08 153.823C106.622 151.555 108.162 149.29 108.201 146.504C107.567 145.991 106.573 145.848 105.579 145.705C102.264 145.24 98.9459 144.763 98.0692 138.295C98.017 137.961 97.9858 137.659 97.9429 137.36C97.9305 137.27 97.9184 137.181 97.9066 137.094C97.6721 135.376 97.5495 134.478 97.3358 134.122C97.2189 133.917 96.6586 133.633 95.5464 133.049L95.1414 132.835C92.9495 131.697 91.7064 129.56 91.0623 127.063C90.3003 124.127 90.3989 120.649 90.7395 118.075C90.8451 117.265 91.3781 116.613 92.0798 116.313C113.516 107.267 128.127 107.498 139.747 107.687C140.245 107.69 140.745 107.705 141.231 107.711C128.932 100.356 116.998 87.4151 107.455 73.4366C97.3783 58.6702 89.9355 42.6145 87.5405 30.6187C82.2093 46.0254 72.2726 70.8842 38.9967 94.3497C38.965 94.3706 38.9334 94.3915 38.9017 94.4124L38.6401 94.5942C38.2951 94.8356 38.2279 94.8164 38.1824 94.8782C38.1199 94.9695 38.201 94.9477 38.1156 95.2313C38.1018 95.2723 38.1402 95.1378 37.8863 95.9507C37.7325 96.4885 37.3761 96.9191 36.93 97.2001ZM128.024 69.4024C129.455 74.7419 126.792 85.7465 123.564 86.8102C132.077 96.2481 141.469 103.874 150.709 107.456C151.176 107.393 151.603 107.316 151.99 107.187C152.737 106.962 153.422 106.555 154.097 105.828C155.382 103.584 155.749 100.507 155.376 96.8451C154.215 85.5616 146.13 69.5661 135.819 54.8501C125.487 40.1025 112.996 26.7524 103.064 20.7735C99.4236 18.5834 96.2399 17.4503 93.8094 17.6919C93.1939 17.7575 92.8518 17.8243 92.7051 17.9257C92.5269 18.0479 92.3002 18.4066 91.9526 19.0087C91.783 19.3024 91.6196 19.6193 91.4509 19.9625C91.4463 20.0382 91.4302 20.117 91.4225 20.1811C89.7967 28.661 95.32 44.5483 104.689 60.6589C107.798 58.0382 124.337 55.6425 128.024 69.4024ZM151.64 111.812C151.202 112.029 150.685 112.093 150.183 111.979C149.759 112.018 149.329 112.034 148.879 112.068C145.92 112.24 142.915 112.189 139.674 112.138C128.691 111.965 114.915 111.746 95.0054 119.911C94.8401 121.842 94.869 124.082 95.3571 125.95C95.7056 127.296 96.2769 128.409 97.1719 128.877L97.5769 129.091C99.4782 130.072 100.414 130.553 101.184 131.899C101.831 133.016 101.995 134.276 102.328 136.769C102.368 137.056 102.414 137.367 102.454 137.703C102.885 140.84 104.538 141.08 106.188 141.308C108.332 141.616 110.486 141.92 112.14 144.294C112.405 144.633 112.581 145.058 112.618 145.52C112.941 150.2 110.82 153.313 108.688 156.429C108.217 157.126 107.743 157.812 107.31 158.512C107.276 158.57 107.239 158.618 107.205 158.676C102.473 165.108 97.9751 164.861 93.7548 161.759C90.7389 159.538 88.1044 155.775 85.6454 152.25C85.4396 151.945 85.2253 151.655 84.6024 150.767C80.8306 145.446 77.2933 138.685 73.633 131.696L73.2575 130.99C72.4857 131.445 71.7285 131.908 70.9829 132.369C69.4369 133.317 67.9604 134.246 66.5534 135.157C66.372 135.268 66.2601 135.36 66.1683 135.434C65.2692 136.11 64.8641 136.404 63.8489 136.229C55.6804 141.187 47.134 138.896 40.3177 133.286C37.5296 130.942 35.0174 128.052 32.9775 124.887C30.9376 121.722 29.3555 118.273 28.3812 114.822C26.0851 106.623 27.2447 98.4421 33.8696 93.8862C34.0704 93.1993 34.192 92.8191 34.5413 92.3159C34.9361 91.7508 35.3127 91.4885 36.0976 90.943L36.3476 90.7643C36.3793 90.7434 36.4109 90.7225 36.4426 90.7016C70.5921 66.6047 79.3206 40.9897 84.279 26.4153C85.6707 22.343 86.7736 19.0929 88.1048 16.7872C88.7577 15.6564 89.289 14.9058 90.1225 14.31C90.9876 13.6934 91.9196 13.4188 93.3453 13.2727C96.8006 12.9179 100.905 14.2886 105.359 16.9682C115.808 23.2555 128.816 37.1 139.473 52.3192C150.155 67.5816 158.566 84.3336 159.799 96.3926C160.285 101.079 159.71 105.143 157.82 108.282C157.761 108.384 157.678 108.493 157.593 108.591C156.266 110.126 154.852 110.964 153.295 111.455C152.754 111.613 152.2 111.724 151.64 111.812Z" fill="black"/>
<path d="M36.93 97.2001C31.6467 100.416 30.7941 106.963 32.669 113.636C33.5137 116.65 34.9085 119.677 36.7154 122.483C38.5193 125.277 40.7113 127.805 43.1769 129.826C48.784 134.444 55.7873 136.304 62.2441 131.955C62.7273 131.626 63.3072 131.521 63.8411 131.614C63.9445 131.536 64.051 131.47 64.166 131.39C65.7829 130.336 67.2942 129.397 68.6673 128.545C70.2017 127.6 71.6559 126.726 73.0329 125.935C74.0958 125.315 75.4603 125.682 76.0803 126.745C76.1251 126.82 76.1585 126.898 76.1918 126.976C76.6516 127.858 77.1231 128.737 77.5829 129.62L77.592 129.637C81.1709 136.467 84.6241 143.057 88.2559 148.186C88.3186 148.281 88.8045 148.983 89.302 149.681C91.5613 152.924 93.9901 156.383 96.3906 158.16C98.508 159.716 100.855 159.72 103.547 156.143C104.009 155.392 104.494 154.682 104.987 153.959L105.03 153.896L105.08 153.823C106.622 151.555 108.162 149.29 108.201 146.504C107.567 145.991 106.573 145.848 105.579 145.705C102.264 145.24 98.9459 144.763 98.0692 138.295C98.017 137.961 97.9858 137.659 97.9429 137.36L97.9066 137.094C97.6721 135.376 97.5495 134.478 97.3358 134.122C97.2189 133.917 96.6586 133.633 95.5464 133.049L95.1414 132.835C92.9495 131.697 91.7064 129.56 91.0623 127.063C90.3003 124.127 90.3989 120.649 90.7395 118.075C90.8451 117.265 91.3781 116.613 92.0798 116.313C113.516 107.267 128.127 107.498 139.747 107.687C140.245 107.69 140.745 107.705 141.231 107.711C128.932 100.356 116.998 87.4151 107.455 73.4366C97.3783 58.6702 89.9355 42.6145 87.5405 30.6187C82.2093 46.0254 72.2726 70.8842 38.9967 94.3497L38.9017 94.4124L38.6401 94.5942C38.2951 94.8356 38.2279 94.8164 38.1824 94.8782C38.1199 94.9695 38.201 94.9477 38.1156 95.2313C38.1018 95.2723 38.1402 95.1378 37.8863 95.9507C37.7325 96.4885 37.3761 96.9191 36.93 97.2001Z" fill="white"/>
<path d="M128.024 69.4024C129.455 74.7419 126.792 85.7465 123.564 86.8102C132.077 96.2481 141.469 103.874 150.709 107.456C151.176 107.393 151.603 107.316 151.99 107.187C152.737 106.962 153.422 106.555 154.097 105.828C155.382 103.584 155.749 100.507 155.376 96.8451C154.215 85.5616 146.13 69.5661 135.819 54.8501C125.487 40.1025 112.996 26.7524 103.064 20.7735C99.4236 18.5834 96.2399 17.4503 93.8094 17.6919C93.1939 17.7575 92.8518 17.8243 92.7051 17.9257C92.5269 18.0479 92.3002 18.4066 91.9526 19.0087C91.783 19.3024 91.6196 19.6193 91.4509 19.9625C91.4463 20.0382 91.4302 20.117 91.4225 20.1811C89.7967 28.661 95.32 44.5483 104.689 60.6589C107.798 58.0382 124.337 55.6425 128.024 69.4024Z" fill="white"/>
</g>
<defs>
<clipPath id="clip0_16_298">
<rect width="147.346" height="147.346" fill="white" transform="translate(0 38.136) rotate(-15)"/>
</clipPath>
</defs>
</svg>
