<svg width="215" height="214" viewBox="0 0 215 214" fill="none" xmlns="http://www.w3.org/2000/svg">
<g clip-path="url(#clip0_21_370)">
<path d="M125.257 185.758L59.1752 171.712L58.0047 177.219L124.086 191.265L125.257 185.758Z" fill="black"/>
<path d="M156.861 37.0744L90.779 23.0282L89.6085 28.535L155.69 42.5812L156.861 37.0744Z" fill="black"/>
<path d="M103.788 43.0602L81.7606 38.3782L80.5901 43.885L102.617 48.567L103.788 43.0602Z" fill="black"/>
<path d="M99.1059 65.0875L77.0786 60.4054L75.9081 65.9123L97.9353 70.5943L99.1059 65.0875Z" fill="black"/>
<path d="M150.662 93.313L95.5943 81.6079L94.4238 87.1147L149.492 98.8198L150.662 93.313Z" fill="black"/>
<path d="M90.0875 80.4374L73.5671 76.9259L72.3965 82.4327L88.917 85.9442L90.0875 80.4374Z" fill="black"/>
<path d="M147.151 109.833L92.0828 98.1284L90.9123 103.635L145.98 115.34L147.151 109.833Z" fill="black"/>
<path d="M86.576 96.9579L70.0555 93.4463L68.885 98.9532L85.4055 102.465L86.576 96.9579Z" fill="black"/>
<path d="M143.639 126.354L88.5713 114.649L87.4008 120.156L142.469 131.861L143.639 126.354Z" fill="black"/>
<path d="M83.0644 113.478L66.544 109.967L65.3735 115.474L81.8939 118.985L83.0644 113.478Z" fill="black"/>
<path d="M140.128 142.874L85.0597 131.169L83.8892 136.676L138.957 148.381L140.128 142.874Z" fill="black"/>
<path d="M79.5529 129.999L63.0325 126.487L61.862 131.994L78.3824 135.506L79.5529 129.999Z" fill="black"/>
<path d="M136.616 159.395L81.5482 147.69L80.3777 153.197L135.446 164.902L136.616 159.395Z" fill="black"/>
<path d="M76.0414 146.519L59.5209 143.008L58.3504 148.515L74.8709 152.026L76.0414 146.519Z" fill="black"/>
<path d="M168.699 62.6131L145.289 172.749L150.796 173.92L174.206 63.7837L168.699 62.6131Z" fill="black"/>
<path d="M156.861 37.0744L155.69 42.5812L166.704 44.9222C168.164 45.2326 169.442 46.1105 170.255 47.3628C171.068 48.615 171.351 50.139 171.04 51.5995L168.699 62.6131L174.206 63.7837L176.547 52.77C177.168 49.849 176.603 46.801 174.977 44.2965C173.35 41.7921 170.795 40.0362 167.874 39.4154L156.861 37.0744Z" fill="black"/>
<path d="M64.0697 40.3735L40.6595 150.51L46.1663 151.68L69.5765 41.544L64.0697 40.3735Z" fill="black"/>
<path d="M90.779 23.0282L89.6085 28.535L78.5948 26.194C77.1343 25.8836 75.6103 26.166 74.3581 26.9793C73.1059 27.7925 72.2279 29.0698 71.9175 30.5303L69.5765 41.544L64.0697 40.3735L66.4107 29.3598C67.0316 26.4388 68.7874 23.8841 71.2919 22.2577C73.7963 20.6312 76.8443 20.0663 79.7653 20.6872L90.779 23.0282Z" fill="black"/>
<path d="M124.086 191.265L125.257 185.758L136.271 188.099C137.731 188.41 139.255 188.127 140.507 187.314C141.76 186.501 142.638 185.224 142.948 183.763L145.289 172.749L150.796 173.92L148.455 184.934C147.834 187.855 146.078 190.409 143.574 192.036C141.069 193.662 138.021 194.227 135.1 193.606L124.086 191.265Z" fill="black"/>
<path d="M58.0047 177.219L59.1752 171.712L48.1616 169.371C46.7011 169.061 45.4237 168.183 44.6105 166.931C43.7973 165.678 43.5148 164.154 43.8253 162.694L46.1663 151.68L40.6595 150.51L38.3184 161.523C37.6976 164.444 38.2625 167.492 39.8889 169.997C41.5153 172.501 44.0701 174.257 46.9911 174.878L58.0047 177.219Z" fill="black"/>
<path d="M87.2674 39.5487L81.7606 38.3782L75.9081 65.9123L81.4149 67.0828L87.2674 39.5487Z" fill="black"/>
<path d="M103.788 43.0602L98.2811 41.8897L92.4285 69.4238L97.9353 70.5943L103.788 43.0602Z" fill="black"/>
<path fill-rule="evenodd" clip-rule="evenodd" d="M59.1752 171.712L125.257 185.758L136.271 188.099C137.731 188.41 139.255 188.127 140.507 187.314C141.76 186.501 142.638 185.224 142.948 183.763L145.289 172.749L168.699 62.6131L171.04 51.5995C171.351 50.139 171.068 48.615 170.255 47.3628C169.442 46.1105 168.164 45.2326 166.704 44.9222L155.69 42.5812L89.6085 28.535L78.5948 26.194C77.1343 25.8836 75.6103 26.166 74.3581 26.9793C73.1059 27.7925 72.2279 29.0698 71.9175 30.5303L69.5765 41.544L46.1663 151.68L43.8253 162.694C43.5148 164.154 43.7973 165.678 44.6105 166.931C45.4237 168.183 46.7011 169.061 48.1616 169.371L59.1752 171.712ZM81.7606 38.3782L87.2674 39.5487L98.2811 41.8897L103.788 43.0602L102.617 48.567L99.1059 65.0875L97.9353 70.5943L92.4285 69.4238L81.4149 67.0828L75.9081 65.9123L77.0786 60.4054L80.5901 43.885L81.7606 38.3782ZM150.662 93.313L95.5943 81.6079L94.4238 87.1147L149.492 98.8198L150.662 93.313ZM90.0875 80.4374L73.5671 76.9259L72.3965 82.4327L88.917 85.9442L90.0875 80.4374ZM147.151 109.833L92.0828 98.1284L90.9123 103.635L145.98 115.34L147.151 109.833ZM86.576 96.9579L70.0555 93.4463L68.885 98.9532L85.4055 102.465L86.576 96.9579ZM143.639 126.354L88.5713 114.649L87.4008 120.156L142.469 131.861L143.639 126.354ZM83.0644 113.478L66.544 109.967L65.3735 115.474L81.8939 118.985L83.0644 113.478ZM140.128 142.874L85.0597 131.169L83.8892 136.676L138.957 148.381L140.128 142.874ZM79.5529 129.999L63.0325 126.487L61.862 131.994L78.3824 135.506L79.5529 129.999ZM136.616 159.395L81.5482 147.69L80.3777 153.197L135.446 164.902L136.616 159.395ZM76.0414 146.519L59.5209 143.008L58.3504 148.515L74.8709 152.026L76.0414 146.519Z" fill="white"/>
</g>
<defs>
<clipPath id="clip0_21_370">
<rect width="180.155" height="180.155" fill="white" transform="translate(38.052 0.30957) rotate(12)"/>
</clipPath>
</defs>
</svg>
